<?xml version="1.0" standalone="no"?>
<!DOCTYPE svg PUBLIC "-//W3C//DTD SVG 20010904//EN"
 "http://www.w3.org/TR/2001/REC-SVG-20010904/DTD/svg10.dtd">
<svg version="1.0" xmlns="http://www.w3.org/2000/svg"
 width="120.000000pt" height="109.000000pt" viewBox="0 0 120.000000 109.000000"
 preserveAspectRatio="xMidYMid meet">

<g transform="translate(0.000000,109.000000) scale(0.100000,-0.100000)"
fill="#000000" stroke="none">
<path d="M185 987 c-3 -6 -4 -185 -3 -397 l3 -385 47 -3 47 -3 3 -47 3 -47
384 -3 c275 -1 388 1 397 9 11 9 14 81 14 384 0 206 -3 380 -6 389 -4 11 -19
16 -50 16 l-44 0 0 44 c0 31 -5 46 -16 50 -9 3 -186 6 -395 6 -295 0 -381 -3
-384 -13z m763 -54 l3 -33 -333 -2 -333 -3 -3 -332 -2 -333 -35 0 -35 0 0 363
c0 200 3 367 7 370 4 4 169 6 367 5 l361 -3 3 -32z m-3 -383 l0 -315 -315 0
-315 0 -3 305 c-1 168 0 311 3 318 3 10 71 12 317 10 l313 -3 0 -315z m100
-50 l0 -365 -365 0 -365 0 -3 32 -3 33 333 2 333 3 3 333 2 333 33 -3 32 -3 0
-365z"/>
<path d="M463 763 c30 -8 37 -47 37 -213 0 -166 -7 -205 -37 -213 -10 -3 32
-5 92 -5 61 0 101 3 90 5 -39 10 -45 23 -45 99 l0 74 38 0 c97 0 164 45 177
117 9 57 -14 99 -68 124 -35 15 -64 18 -172 18 -72 -1 -122 -3 -112 -6z m218
-22 c18 -14 23 -31 27 -80 7 -93 -23 -141 -88 -141 -19 0 -20 8 -20 113 0 63
3 117 7 120 12 13 51 7 74 -12z"/>
</g>
</svg>
